<?xml version="1.0" encoding="UTF-8" standalone="no"?>
<!DOCTYPE svg PUBLIC "-//W3C//DTD SVG 1.1//EN"
 "http://www.w3.org/Graphics/SVG/1.1/DTD/svg11.dtd">
<!-- Generated by graphviz version 2.43.0 (0)
 -->
<!-- Title: %3 Pages: 1 -->
<svg width="1963pt" height="476pt"
 viewBox="0.00 0.00 1963.13 476.00" xmlns="http://www.w3.org/2000/svg" xmlns:xlink="http://www.w3.org/1999/xlink">
<g id="graph0" class="graph" transform="scale(1 1) rotate(0) translate(4 472)">
<title>%3</title>
<polygon fill="white" stroke="transparent" points="-4,4 -4,-472 1959.13,-472 1959.13,4 -4,4"/>
<!-- [root] aws_instance.private_ec2 (expand) -->
<g id="node1" class="node">
<title>[root] aws_instance.private_ec2 (expand)</title>
<polygon fill="none" stroke="black" points="1359,-324 1161,-324 1161,-288 1359,-288 1359,-324"/>
<text text-anchor="middle" x="1260" y="-302.3" font-family="Times,serif" font-size="14.00">aws_instance.private_ec2</text>
</g>
<!-- [root] aws_security_group.private_security_group (expand) -->
<g id="node8" class="node">
<title>[root] aws_security_group.private_security_group (expand)</title>
<polygon fill="none" stroke="black" points="1470,-180 1144,-180 1144,-144 1470,-144 1470,-180"/>
<text text-anchor="middle" x="1307" y="-158.3" font-family="Times,serif" font-size="14.00">aws_security_group.private_security_group</text>
</g>
<!-- [root] aws_instance.private_ec2 (expand)&#45;&gt;[root] aws_security_group.private_security_group (expand) -->
<g id="edge1" class="edge">
<title>[root] aws_instance.private_ec2 (expand)&#45;&gt;[root] aws_security_group.private_security_group (expand)</title>
<path fill="none" stroke="black" d="M1309.56,-287.85C1325.69,-279.64 1341.8,-268.01 1351,-252 1363.14,-230.88 1348.46,-205.95 1332.88,-187.85"/>
<polygon fill="black" stroke="black" points="1335.08,-185.07 1325.74,-180.06 1329.91,-189.8 1335.08,-185.07"/>
</g>
<!-- [root] aws_subnet.private_subnet (expand) -->
<g id="node10" class="node">
<title>[root] aws_subnet.private_subnet (expand)</title>
<polygon fill="none" stroke="black" points="1610.5,-252 1399.5,-252 1399.5,-216 1610.5,-216 1610.5,-252"/>
<text text-anchor="middle" x="1505" y="-230.3" font-family="Times,serif" font-size="14.00">aws_subnet.private_subnet</text>
</g>
<!-- [root] aws_instance.private_ec2 (expand)&#45;&gt;[root] aws_subnet.private_subnet (expand) -->
<g id="edge2" class="edge">
<title>[root] aws_instance.private_ec2 (expand)&#45;&gt;[root] aws_subnet.private_subnet (expand)</title>
<path fill="none" stroke="black" d="M1319.62,-287.97C1354.45,-278.01 1398.58,-265.41 1435.04,-254.99"/>
<polygon fill="black" stroke="black" points="1436.46,-258.22 1445.11,-252.11 1434.54,-251.49 1436.46,-258.22"/>
</g>
<!-- [root] data.aws_key_pair.key&#45;pair (expand) -->
<g id="node13" class="node">
<title>[root] data.aws_key_pair.key&#45;pair (expand)</title>
<polygon fill="none" stroke="black" points="1000,-252 792,-252 792,-216 1000,-216 1000,-252"/>
<text text-anchor="middle" x="896" y="-230.3" font-family="Times,serif" font-size="14.00">data.aws_key_pair.key&#45;pair</text>
</g>
<!-- [root] aws_instance.private_ec2 (expand)&#45;&gt;[root] data.aws_key_pair.key&#45;pair (expand) -->
<g id="edge3" class="edge">
<title>[root] aws_instance.private_ec2 (expand)&#45;&gt;[root] data.aws_key_pair.key&#45;pair (expand)</title>
<path fill="none" stroke="black" d="M1171.42,-287.97C1118.03,-277.7 1049.92,-264.6 994.8,-254"/>
<polygon fill="black" stroke="black" points="995.14,-250.5 984.66,-252.05 993.82,-257.38 995.14,-250.5"/>
</g>
<!-- [root] var.ami_image_name -->
<g id="node15" class="node">
<title>[root] var.ami_image_name</title>
<polygon fill="none" stroke="black" points="1336.5,-252 1177.5,-252 1177.5,-216 1342.5,-216 1342.5,-246 1336.5,-252"/>
<polyline fill="none" stroke="black" points="1336.5,-252 1336.5,-246 "/>
<polyline fill="none" stroke="black" points="1342.5,-246 1336.5,-246 "/>
<text text-anchor="middle" x="1260" y="-230.3" font-family="Times,serif" font-size="14.00">var.ami_image_name</text>
</g>
<!-- [root] aws_instance.private_ec2 (expand)&#45;&gt;[root] var.ami_image_name -->
<g id="edge4" class="edge">
<title>[root] aws_instance.private_ec2 (expand)&#45;&gt;[root] var.ami_image_name</title>
<path fill="none" stroke="black" d="M1260,-287.7C1260,-279.98 1260,-270.71 1260,-262.11"/>
<polygon fill="black" stroke="black" points="1263.5,-262.1 1260,-252.1 1256.5,-262.1 1263.5,-262.1"/>
</g>
<!-- [root] var.instance_type -->
<g id="node17" class="node">
<title>[root] var.instance_type</title>
<polygon fill="none" stroke="black" points="1153.5,-252 1018.5,-252 1018.5,-216 1159.5,-216 1159.5,-246 1153.5,-252"/>
<polyline fill="none" stroke="black" points="1153.5,-252 1153.5,-246 "/>
<polyline fill="none" stroke="black" points="1159.5,-246 1153.5,-246 "/>
<text text-anchor="middle" x="1089" y="-230.3" font-family="Times,serif" font-size="14.00">var.instance_type</text>
</g>
<!-- [root] aws_instance.private_ec2 (expand)&#45;&gt;[root] var.instance_type -->
<g id="edge5" class="edge">
<title>[root] aws_instance.private_ec2 (expand)&#45;&gt;[root] var.instance_type</title>
<path fill="none" stroke="black" d="M1218.17,-287.88C1194.58,-278.22 1164.94,-266.09 1140,-255.88"/>
<polygon fill="black" stroke="black" points="1141.28,-252.62 1130.7,-252.07 1138.62,-259.1 1141.28,-252.62"/>
</g>
<!-- [root] aws_instance.public_ec2 (expand) -->
<g id="node2" class="node">
<title>[root] aws_instance.public_ec2 (expand)</title>
<polygon fill="none" stroke="black" points="991.5,-324 800.5,-324 800.5,-288 991.5,-288 991.5,-324"/>
<text text-anchor="middle" x="896" y="-302.3" font-family="Times,serif" font-size="14.00">aws_instance.public_ec2</text>
</g>
<!-- [root] aws_security_group.public_security_group (expand) -->
<g id="node9" class="node">
<title>[root] aws_security_group.public_security_group (expand)</title>
<polygon fill="none" stroke="black" points="1087.5,-180 768.5,-180 768.5,-144 1087.5,-144 1087.5,-180"/>
<text text-anchor="middle" x="928" y="-158.3" font-family="Times,serif" font-size="14.00">aws_security_group.public_security_group</text>
</g>
<!-- [root] aws_instance.public_ec2 (expand)&#45;&gt;[root] aws_security_group.public_security_group (expand) -->
<g id="edge6" class="edge">
<title>[root] aws_instance.public_ec2 (expand)&#45;&gt;[root] aws_security_group.public_security_group (expand)</title>
<path fill="none" stroke="black" d="M828.57,-287.94C810.72,-280.02 793.52,-268.55 783,-252 774.42,-238.5 773.83,-229.11 783,-216 792.76,-202.04 806.6,-191.75 821.9,-184.16"/>
<polygon fill="black" stroke="black" points="823.41,-187.32 831.06,-180 820.51,-180.95 823.41,-187.32"/>
</g>
<!-- [root] aws_subnet.public_subnet (expand) -->
<g id="node11" class="node">
<title>[root] aws_subnet.public_subnet (expand)</title>
<polygon fill="none" stroke="black" points="734.5,-252 531.5,-252 531.5,-216 734.5,-216 734.5,-252"/>
<text text-anchor="middle" x="633" y="-230.3" font-family="Times,serif" font-size="14.00">aws_subnet.public_subnet</text>
</g>
<!-- [root] aws_instance.public_ec2 (expand)&#45;&gt;[root] aws_subnet.public_subnet (expand) -->
<g id="edge7" class="edge">
<title>[root] aws_instance.public_ec2 (expand)&#45;&gt;[root] aws_subnet.public_subnet (expand)</title>
<path fill="none" stroke="black" d="M832,-287.97C794.29,-277.93 746.43,-265.19 707.09,-254.72"/>
<polygon fill="black" stroke="black" points="707.85,-251.3 697.29,-252.11 706.05,-258.07 707.85,-251.3"/>
</g>
<!-- [root] aws_instance.public_ec2 (expand)&#45;&gt;[root] data.aws_key_pair.key&#45;pair (expand) -->
<g id="edge8" class="edge">
<title>[root] aws_instance.public_ec2 (expand)&#45;&gt;[root] data.aws_key_pair.key&#45;pair (expand)</title>
<path fill="none" stroke="black" d="M896,-287.7C896,-279.98 896,-270.71 896,-262.11"/>
<polygon fill="black" stroke="black" points="899.5,-262.1 896,-252.1 892.5,-262.1 899.5,-262.1"/>
</g>
<!-- [root] aws_instance.public_ec2 (expand)&#45;&gt;[root] var.ami_image_name -->
<g id="edge9" class="edge">
<title>[root] aws_instance.public_ec2 (expand)&#45;&gt;[root] var.ami_image_name</title>
<path fill="none" stroke="black" d="M984.58,-287.97C1039.97,-277.31 1111.19,-263.62 1167.33,-252.82"/>
<polygon fill="black" stroke="black" points="1168.12,-256.23 1177.28,-250.91 1166.79,-249.36 1168.12,-256.23"/>
</g>
<!-- [root] aws_instance.public_ec2 (expand)&#45;&gt;[root] var.instance_type -->
<g id="edge10" class="edge">
<title>[root] aws_instance.public_ec2 (expand)&#45;&gt;[root] var.instance_type</title>
<path fill="none" stroke="black" d="M943.21,-287.88C970.07,-278.14 1003.88,-265.87 1032.18,-255.61"/>
<polygon fill="black" stroke="black" points="1033.73,-258.77 1041.94,-252.07 1031.35,-252.19 1033.73,-258.77"/>
</g>
<!-- [root] aws_internet_gateway.gw (expand) -->
<g id="node3" class="node">
<title>[root] aws_internet_gateway.gw (expand)</title>
<polygon fill="none" stroke="black" points="483.5,-180 284.5,-180 284.5,-144 483.5,-144 483.5,-180"/>
<text text-anchor="middle" x="384" y="-158.3" font-family="Times,serif" font-size="14.00">aws_internet_gateway.gw</text>
</g>
<!-- [root] aws_vpc.vpc (expand) -->
<g id="node12" class="node">
<title>[root] aws_vpc.vpc (expand)</title>
<polygon fill="none" stroke="black" points="786.5,-108 681.5,-108 681.5,-72 786.5,-72 786.5,-108"/>
<text text-anchor="middle" x="734" y="-86.3" font-family="Times,serif" font-size="14.00">aws_vpc.vpc</text>
</g>
<!-- [root] aws_internet_gateway.gw (expand)&#45;&gt;[root] aws_vpc.vpc (expand) -->
<g id="edge11" class="edge">
<title>[root] aws_internet_gateway.gw (expand)&#45;&gt;[root] aws_vpc.vpc (expand)</title>
<path fill="none" stroke="black" d="M469.17,-143.97C531.69,-131.46 615.18,-114.76 671.58,-103.48"/>
<polygon fill="black" stroke="black" points="672.31,-106.91 681.43,-101.51 670.94,-100.04 672.31,-106.91"/>
</g>
<!-- [root] aws_network_acl.private_nacl (expand) -->
<g id="node4" class="node">
<title>[root] aws_network_acl.private_nacl (expand)</title>
<polygon fill="none" stroke="black" points="228,-180 0,-180 0,-144 228,-144 228,-180"/>
<text text-anchor="middle" x="114" y="-158.3" font-family="Times,serif" font-size="14.00">aws_network_acl.private_nacl</text>
</g>
<!-- [root] aws_network_acl.private_nacl (expand)&#45;&gt;[root] aws_vpc.vpc (expand) -->
<g id="edge12" class="edge">
<title>[root] aws_network_acl.private_nacl (expand)&#45;&gt;[root] aws_vpc.vpc (expand)</title>
<path fill="none" stroke="black" d="M228.09,-145.7C232.78,-145.12 237.44,-144.55 242,-144 395.95,-125.49 577.37,-106.74 671.01,-97.28"/>
<polygon fill="black" stroke="black" points="671.57,-100.74 681.16,-96.26 670.86,-93.78 671.57,-100.74"/>
</g>
<!-- [root] aws_network_acl.public_nacl (expand) -->
<g id="node5" class="node">
<title>[root] aws_network_acl.public_nacl (expand)</title>
<polygon fill="none" stroke="black" points="365.5,-324 144.5,-324 144.5,-288 365.5,-288 365.5,-324"/>
<text text-anchor="middle" x="255" y="-302.3" font-family="Times,serif" font-size="14.00">aws_network_acl.public_nacl</text>
</g>
<!-- [root] aws_network_acl.public_nacl (expand)&#45;&gt;[root] aws_vpc.vpc (expand) -->
<g id="edge13" class="edge">
<title>[root] aws_network_acl.public_nacl (expand)&#45;&gt;[root] aws_vpc.vpc (expand)</title>
<path fill="none" stroke="black" d="M251.07,-287.76C244.67,-254.72 236.3,-182.37 275,-144 302.64,-116.6 552.22,-100.28 671.31,-93.99"/>
<polygon fill="black" stroke="black" points="671.57,-97.48 681.38,-93.47 671.21,-90.49 671.57,-97.48"/>
</g>
<!-- [root] aws_route_table.public_route (expand) -->
<g id="node6" class="node">
<title>[root] aws_route_table.public_route (expand)</title>
<polygon fill="none" stroke="black" points="510.5,-252 285.5,-252 285.5,-216 510.5,-216 510.5,-252"/>
<text text-anchor="middle" x="398" y="-230.3" font-family="Times,serif" font-size="14.00">aws_route_table.public_route</text>
</g>
<!-- [root] aws_route_table.public_route (expand)&#45;&gt;[root] aws_internet_gateway.gw (expand) -->
<g id="edge14" class="edge">
<title>[root] aws_route_table.public_route (expand)&#45;&gt;[root] aws_internet_gateway.gw (expand)</title>
<path fill="none" stroke="black" d="M394.54,-215.7C393,-207.98 391.14,-198.71 389.42,-190.11"/>
<polygon fill="black" stroke="black" points="392.81,-189.22 387.42,-180.1 385.95,-190.6 392.81,-189.22"/>
</g>
<!-- [root] aws_route_table_association.public_route_association (expand) -->
<g id="node7" class="node">
<title>[root] aws_route_table_association.public_route_association (expand)</title>
<polygon fill="none" stroke="black" points="782,-324 384,-324 384,-288 782,-288 782,-324"/>
<text text-anchor="middle" x="583" y="-302.3" font-family="Times,serif" font-size="14.00">aws_route_table_association.public_route_association</text>
</g>
<!-- [root] aws_route_table_association.public_route_association (expand)&#45;&gt;[root] aws_route_table.public_route (expand) -->
<g id="edge15" class="edge">
<title>[root] aws_route_table_association.public_route_association (expand)&#45;&gt;[root] aws_route_table.public_route (expand)</title>
<path fill="none" stroke="black" d="M537.74,-287.88C512,-278.14 479.59,-265.87 452.46,-255.61"/>
<polygon fill="black" stroke="black" points="453.7,-252.33 443.11,-252.07 451.22,-258.88 453.7,-252.33"/>
</g>
<!-- [root] aws_route_table_association.public_route_association (expand)&#45;&gt;[root] aws_subnet.public_subnet (expand) -->
<g id="edge16" class="edge">
<title>[root] aws_route_table_association.public_route_association (expand)&#45;&gt;[root] aws_subnet.public_subnet (expand)</title>
<path fill="none" stroke="black" d="M595.36,-287.7C601.23,-279.47 608.37,-269.48 614.84,-260.42"/>
<polygon fill="black" stroke="black" points="617.82,-262.28 620.78,-252.1 612.12,-258.21 617.82,-262.28"/>
</g>
<!-- [root] aws_security_group.private_security_group (expand)&#45;&gt;[root] aws_vpc.vpc (expand) -->
<g id="edge17" class="edge">
<title>[root] aws_security_group.private_security_group (expand)&#45;&gt;[root] aws_vpc.vpc (expand)</title>
<path fill="none" stroke="black" d="M1167.56,-143.97C1049.34,-129.52 885.29,-109.48 796.73,-98.66"/>
<polygon fill="black" stroke="black" points="796.92,-95.16 786.57,-97.42 796.07,-102.11 796.92,-95.16"/>
</g>
<!-- [root] aws_security_group.public_security_group (expand)&#45;&gt;[root] aws_vpc.vpc (expand) -->
<g id="edge18" class="edge">
<title>[root] aws_security_group.public_security_group (expand)&#45;&gt;[root] aws_vpc.vpc (expand)</title>
<path fill="none" stroke="black" d="M880.54,-143.88C853.43,-134.09 819.26,-121.77 790.74,-111.47"/>
<polygon fill="black" stroke="black" points="791.9,-108.17 781.3,-108.07 789.52,-114.75 791.9,-108.17"/>
</g>
<!-- [root] aws_subnet.private_subnet (expand)&#45;&gt;[root] aws_vpc.vpc (expand) -->
<g id="edge19" class="edge">
<title>[root] aws_subnet.private_subnet (expand)&#45;&gt;[root] aws_vpc.vpc (expand)</title>
<path fill="none" stroke="black" d="M1505.39,-215.8C1504.83,-195.19 1500.42,-161.28 1479,-144 1426.46,-101.62 966.42,-93.12 796.61,-91.42"/>
<polygon fill="black" stroke="black" points="796.61,-87.92 786.58,-91.32 796.54,-94.92 796.61,-87.92"/>
</g>
<!-- [root] var.private_subnet_ip_range -->
<g id="node18" class="node">
<title>[root] var.private_subnet_ip_range</title>
<polygon fill="none" stroke="black" points="1738,-180 1526,-180 1526,-144 1744,-144 1744,-174 1738,-180"/>
<polyline fill="none" stroke="black" points="1738,-180 1738,-174 "/>
<polyline fill="none" stroke="black" points="1744,-174 1738,-174 "/>
<text text-anchor="middle" x="1635" y="-158.3" font-family="Times,serif" font-size="14.00">var.private_subnet_ip_range</text>
</g>
<!-- [root] aws_subnet.private_subnet (expand)&#45;&gt;[root] var.private_subnet_ip_range -->
<g id="edge20" class="edge">
<title>[root] aws_subnet.private_subnet (expand)&#45;&gt;[root] var.private_subnet_ip_range</title>
<path fill="none" stroke="black" d="M1536.8,-215.88C1554.11,-206.55 1575.72,-194.92 1594.26,-184.94"/>
<polygon fill="black" stroke="black" points="1595.93,-188.01 1603.08,-180.19 1592.61,-181.85 1595.93,-188.01"/>
</g>
<!-- [root] aws_subnet.public_subnet (expand)&#45;&gt;[root] aws_vpc.vpc (expand) -->
<g id="edge21" class="edge">
<title>[root] aws_subnet.public_subnet (expand)&#45;&gt;[root] aws_vpc.vpc (expand)</title>
<path fill="none" stroke="black" d="M677.45,-215.95C693.64,-207.53 710.53,-195.74 721,-180 733.06,-161.87 735.84,-137.09 735.87,-118.28"/>
<polygon fill="black" stroke="black" points="739.37,-118.18 735.63,-108.26 732.37,-118.34 739.37,-118.18"/>
</g>
<!-- [root] var.public_subnet_ip_range -->
<g id="node19" class="node">
<title>[root] var.public_subnet_ip_range</title>
<polygon fill="none" stroke="black" points="706,-180 502,-180 502,-144 712,-144 712,-174 706,-180"/>
<polyline fill="none" stroke="black" points="706,-180 706,-174 "/>
<polyline fill="none" stroke="black" points="712,-174 706,-174 "/>
<text text-anchor="middle" x="607" y="-158.3" font-family="Times,serif" font-size="14.00">var.public_subnet_ip_range</text>
</g>
<!-- [root] aws_subnet.public_subnet (expand)&#45;&gt;[root] var.public_subnet_ip_range -->
<g id="edge22" class="edge">
<title>[root] aws_subnet.public_subnet (expand)&#45;&gt;[root] var.public_subnet_ip_range</title>
<path fill="none" stroke="black" d="M626.57,-215.7C623.64,-207.81 620.11,-198.3 616.86,-189.55"/>
<polygon fill="black" stroke="black" points="620.12,-188.26 613.35,-180.1 613.55,-190.7 620.12,-188.26"/>
</g>
<!-- [root] provider[&quot;registry.terraform.io/hashicorp/aws&quot;] -->
<g id="node14" class="node">
<title>[root] provider[&quot;registry.terraform.io/hashicorp/aws&quot;]</title>
<polygon fill="none" stroke="black" points="1122,-36 796.74,-18 1122,0 1447.26,-18 1122,-36"/>
<text text-anchor="middle" x="1122" y="-14.3" font-family="Times,serif" font-size="14.00">provider[&quot;registry.terraform.io/hashicorp/aws&quot;]</text>
</g>
<!-- [root] aws_vpc.vpc (expand)&#45;&gt;[root] provider[&quot;registry.terraform.io/hashicorp/aws&quot;] -->
<g id="edge23" class="edge">
<title>[root] aws_vpc.vpc (expand)&#45;&gt;[root] provider[&quot;registry.terraform.io/hashicorp/aws&quot;]</title>
<path fill="none" stroke="black" d="M786.73,-79.49C851.77,-67.75 963.08,-47.67 1039.48,-33.89"/>
<polygon fill="black" stroke="black" points="1040.33,-37.29 1049.55,-32.07 1039.09,-30.4 1040.33,-37.29"/>
</g>
<!-- [root] var.cidr_block -->
<g id="node16" class="node">
<title>[root] var.cidr_block</title>
<polygon fill="none" stroke="black" points="641.5,-36 532.5,-36 532.5,0 647.5,0 647.5,-30 641.5,-36"/>
<polyline fill="none" stroke="black" points="641.5,-36 641.5,-30 "/>
<polyline fill="none" stroke="black" points="647.5,-30 641.5,-30 "/>
<text text-anchor="middle" x="590" y="-14.3" font-family="Times,serif" font-size="14.00">var.cidr_block</text>
</g>
<!-- [root] aws_vpc.vpc (expand)&#45;&gt;[root] var.cidr_block -->
<g id="edge24" class="edge">
<title>[root] aws_vpc.vpc (expand)&#45;&gt;[root] var.cidr_block</title>
<path fill="none" stroke="black" d="M698.77,-71.88C679.42,-62.47 655.23,-50.71 634.57,-40.67"/>
<polygon fill="black" stroke="black" points="635.89,-37.41 625.36,-36.19 632.83,-43.71 635.89,-37.41"/>
</g>
<!-- [root] var.vpc_name -->
<g id="node20" class="node">
<title>[root] var.vpc_name</title>
<polygon fill="none" stroke="black" points="772.5,-36 665.5,-36 665.5,0 778.5,0 778.5,-30 772.5,-36"/>
<polyline fill="none" stroke="black" points="772.5,-36 772.5,-30 "/>
<polyline fill="none" stroke="black" points="778.5,-30 772.5,-30 "/>
<text text-anchor="middle" x="722" y="-14.3" font-family="Times,serif" font-size="14.00">var.vpc_name</text>
</g>
<!-- [root] aws_vpc.vpc (expand)&#45;&gt;[root] var.vpc_name -->
<g id="edge25" class="edge">
<title>[root] aws_vpc.vpc (expand)&#45;&gt;[root] var.vpc_name</title>
<path fill="none" stroke="black" d="M731.03,-71.7C729.71,-63.98 728.12,-54.71 726.65,-46.11"/>
<polygon fill="black" stroke="black" points="730.07,-45.37 724.93,-36.1 723.17,-46.55 730.07,-45.37"/>
</g>
<!-- [root] data.aws_key_pair.key&#45;pair (expand)&#45;&gt;[root] provider[&quot;registry.terraform.io/hashicorp/aws&quot;] -->
<g id="edge26" class="edge">
<title>[root] data.aws_key_pair.key&#45;pair (expand)&#45;&gt;[root] provider[&quot;registry.terraform.io/hashicorp/aws&quot;]</title>
<path fill="none" stroke="black" d="M1000.2,-216.06C1041.45,-207.24 1082.32,-195.11 1096,-180 1129.24,-143.29 1129.2,-81.59 1125.83,-46.18"/>
<polygon fill="black" stroke="black" points="1129.3,-45.65 1124.72,-36.09 1122.34,-46.42 1129.3,-45.65"/>
</g>
<!-- [root] output.private_ip_address (expand) -->
<g id="node21" class="node">
<title>[root] output.private_ip_address (expand)</title>
<ellipse fill="none" stroke="black" cx="1251" cy="-378" rx="204.16" ry="18"/>
<text text-anchor="middle" x="1251" y="-374.3" font-family="Times,serif" font-size="14.00">[root] output.private_ip_address (expand)</text>
</g>
<!-- [root] output.private_ip_address (expand)&#45;&gt;[root] aws_instance.public_ec2 (expand) -->
<g id="edge27" class="edge">
<title>[root] output.private_ip_address (expand)&#45;&gt;[root] aws_instance.public_ec2 (expand)</title>
<path fill="none" stroke="black" d="M1171.77,-361.38C1118.76,-350.92 1048.67,-337.1 992.42,-326.01"/>
<polygon fill="black" stroke="black" points="992.93,-322.55 982.44,-324.04 991.58,-329.41 992.93,-322.55"/>
</g>
<!-- [root] output.private_ip_address_of_vm2 (expand) -->
<g id="node22" class="node">
<title>[root] output.private_ip_address_of_vm2 (expand)</title>
<ellipse fill="none" stroke="black" cx="1714" cy="-378" rx="241.26" ry="18"/>
<text text-anchor="middle" x="1714" y="-374.3" font-family="Times,serif" font-size="14.00">[root] output.private_ip_address_of_vm2 (expand)</text>
</g>
<!-- [root] output.private_ip_address_of_vm2 (expand)&#45;&gt;[root] aws_instance.private_ec2 (expand) -->
<g id="edge28" class="edge">
<title>[root] output.private_ip_address_of_vm2 (expand)&#45;&gt;[root] aws_instance.private_ec2 (expand)</title>
<path fill="none" stroke="black" d="M1614.09,-361.59C1541.63,-350.42 1443.68,-335.32 1369.17,-323.83"/>
<polygon fill="black" stroke="black" points="1369.69,-320.37 1359.28,-322.31 1368.63,-327.29 1369.69,-320.37"/>
</g>
<!-- [root] output.public_ip_address (expand) -->
<g id="node23" class="node">
<title>[root] output.public_ip_address (expand)</title>
<ellipse fill="none" stroke="black" cx="830" cy="-378" rx="198.76" ry="18"/>
<text text-anchor="middle" x="830" y="-374.3" font-family="Times,serif" font-size="14.00">[root] output.public_ip_address (expand)</text>
</g>
<!-- [root] output.public_ip_address (expand)&#45;&gt;[root] aws_instance.public_ec2 (expand) -->
<g id="edge29" class="edge">
<title>[root] output.public_ip_address (expand)&#45;&gt;[root] aws_instance.public_ec2 (expand)</title>
<path fill="none" stroke="black" d="M845.98,-360.05C853.96,-351.58 863.78,-341.17 872.6,-331.82"/>
<polygon fill="black" stroke="black" points="875.4,-333.95 879.71,-324.28 870.31,-329.15 875.4,-333.95"/>
</g>
<!-- [root] provider[&quot;registry.terraform.io/hashicorp/aws&quot;] (close) -->
<g id="node24" class="node">
<title>[root] provider[&quot;registry.terraform.io/hashicorp/aws&quot;] (close)</title>
<ellipse fill="none" stroke="black" cx="321" cy="-378" rx="291.65" ry="18"/>
<text text-anchor="middle" x="321" y="-374.3" font-family="Times,serif" font-size="14.00">[root] provider[&quot;registry.terraform.io/hashicorp/aws&quot;] (close)</text>
</g>
<!-- [root] provider[&quot;registry.terraform.io/hashicorp/aws&quot;] (close)&#45;&gt;[root] aws_instance.private_ec2 (expand) -->
<g id="edge30" class="edge">
<title>[root] provider[&quot;registry.terraform.io/hashicorp/aws&quot;] (close)&#45;&gt;[root] aws_instance.private_ec2 (expand)</title>
<path fill="none" stroke="black" d="M499,-363.73C691.02,-349.42 990.68,-327.08 1150.66,-315.15"/>
<polygon fill="black" stroke="black" points="1151.28,-318.61 1160.99,-314.38 1150.76,-311.63 1151.28,-318.61"/>
</g>
<!-- [root] provider[&quot;registry.terraform.io/hashicorp/aws&quot;] (close)&#45;&gt;[root] aws_instance.public_ec2 (expand) -->
<g id="edge31" class="edge">
<title>[root] provider[&quot;registry.terraform.io/hashicorp/aws&quot;] (close)&#45;&gt;[root] aws_instance.public_ec2 (expand)</title>
<path fill="none" stroke="black" d="M466.78,-362.39C557.08,-352.9 675.66,-339.65 790.44,-324.04"/>
<polygon fill="black" stroke="black" points="791.03,-327.49 800.46,-322.67 790.08,-320.56 791.03,-327.49"/>
</g>
<!-- [root] provider[&quot;registry.terraform.io/hashicorp/aws&quot;] (close)&#45;&gt;[root] aws_network_acl.private_nacl (expand) -->
<g id="edge32" class="edge">
<title>[root] provider[&quot;registry.terraform.io/hashicorp/aws&quot;] (close)&#45;&gt;[root] aws_network_acl.private_nacl (expand)</title>
<path fill="none" stroke="black" d="M192.94,-361.74C170.91,-353.66 150.24,-341.68 135,-324 102.98,-286.85 104.78,-225.82 109.23,-190.54"/>
<polygon fill="black" stroke="black" points="112.72,-190.86 110.66,-180.47 105.78,-189.88 112.72,-190.86"/>
</g>
<!-- [root] provider[&quot;registry.terraform.io/hashicorp/aws&quot;] (close)&#45;&gt;[root] aws_network_acl.public_nacl (expand) -->
<g id="edge33" class="edge">
<title>[root] provider[&quot;registry.terraform.io/hashicorp/aws&quot;] (close)&#45;&gt;[root] aws_network_acl.public_nacl (expand)</title>
<path fill="none" stroke="black" d="M304.69,-359.7C296.69,-351.22 286.93,-340.86 278.18,-331.58"/>
<polygon fill="black" stroke="black" points="280.53,-328.98 271.13,-324.1 275.44,-333.78 280.53,-328.98"/>
</g>
<!-- [root] provider[&quot;registry.terraform.io/hashicorp/aws&quot;] (close)&#45;&gt;[root] aws_route_table_association.public_route_association (expand) -->
<g id="edge34" class="edge">
<title>[root] provider[&quot;registry.terraform.io/hashicorp/aws&quot;] (close)&#45;&gt;[root] aws_route_table_association.public_route_association (expand)</title>
<path fill="none" stroke="black" d="M383.09,-360.41C420.89,-350.31 469.4,-337.35 509.17,-326.73"/>
<polygon fill="black" stroke="black" points="510.32,-330.04 519.08,-324.08 508.51,-323.28 510.32,-330.04"/>
</g>
<!-- [root] root -->
<g id="node25" class="node">
<title>[root] root</title>
<ellipse fill="none" stroke="black" cx="1040" cy="-450" rx="58.49" ry="18"/>
<text text-anchor="middle" x="1040" y="-446.3" font-family="Times,serif" font-size="14.00">[root] root</text>
</g>
<!-- [root] root&#45;&gt;[root] output.private_ip_address (expand) -->
<g id="edge35" class="edge">
<title>[root] root&#45;&gt;[root] output.private_ip_address (expand)</title>
<path fill="none" stroke="black" d="M1078.21,-436.32C1109.83,-425.84 1155.28,-410.76 1191.63,-398.7"/>
<polygon fill="black" stroke="black" points="1192.75,-402.01 1201.14,-395.54 1190.55,-395.37 1192.75,-402.01"/>
</g>
<!-- [root] root&#45;&gt;[root] output.private_ip_address_of_vm2 (expand) -->
<g id="edge36" class="edge">
<title>[root] root&#45;&gt;[root] output.private_ip_address_of_vm2 (expand)</title>
<path fill="none" stroke="black" d="M1094.59,-443.33C1196.91,-432.7 1420.61,-409.47 1569.29,-394.03"/>
<polygon fill="black" stroke="black" points="1569.83,-397.49 1579.41,-392.98 1569.1,-390.53 1569.83,-397.49"/>
</g>
<!-- [root] root&#45;&gt;[root] output.public_ip_address (expand) -->
<g id="edge37" class="edge">
<title>[root] root&#45;&gt;[root] output.public_ip_address (expand)</title>
<path fill="none" stroke="black" d="M1001.48,-436.16C970.1,-425.7 925.24,-410.75 889.28,-398.76"/>
<polygon fill="black" stroke="black" points="889.99,-395.31 879.39,-395.46 887.77,-401.95 889.99,-395.31"/>
</g>
<!-- [root] root&#45;&gt;[root] provider[&quot;registry.terraform.io/hashicorp/aws&quot;] (close) -->
<g id="edge38" class="edge">
<title>[root] root&#45;&gt;[root] provider[&quot;registry.terraform.io/hashicorp/aws&quot;] (close)</title>
<path fill="none" stroke="black" d="M985.07,-443.65C878.48,-433.27 640,-410.06 479.79,-394.46"/>
<polygon fill="black" stroke="black" points="480.12,-390.98 469.83,-393.49 479.45,-397.94 480.12,-390.98"/>
</g>
</g>
</svg>
